<mxfile host="app.diagrams.net" modified="2024-05-27T10:46:40.036Z" agent="Mozilla/5.0 (Windows NT 10.0; Win64; x64) AppleWebKit/537.36 (KHTML, like Gecko) Chrome/124.0.0.0 Safari/537.36" version="24.4.8" etag="y_XwHun_wMomYOTFfZp1" type="github">
  <diagram name="Страница — 1" id="EwduyoZAylEKXxgFo8u3">
    <mxGraphModel>
      <root>
        <mxCell id="0" />
        <mxCell id="1" parent="0" />
      </root>
    </mxGraphModel>
  </diagram>
</mxfile>
